# xmcd
#
# Track frame offsets:
#	150
#	14799
#	28038
#	44044
#	56272
#	70547
#	80842
#	91560
#	104698
#	114253
#	125200
#	135964
#	146871
#	157763
#	175724
#	186310
#	192214
#	203392
#
# Disc length: 2878 seconds
# Revision: 2
# Processed by: cddbd v1.5.2PL0 Copyright (c) Steve Scherf et al.
# Submitted via: dBpowerAMP V12.0
#
DISCID=f40b3c12
DTITLE=Various Artist - American Country Legends, Vol. 2
DYEAR=2005
DGENRE=Country
TTITLE0=Johnny Cash - I Walk the Line*
TTITLE1=Dottie West - D.I.V.O.R.C.E.
TTITLE2=Anne Murray - Both Sides Now
TTITLE3=Waylon Jennings - Don't Think Twice, It's All Right
TTITLE4=Jerry Lee Lewis - Bottles and Barstools*
TTITLE5=Carl Perkins - Daddy Sang Bass
TTITLE6=Dolly Parton - It Wasn't God Who Made Honky Tonk Angels
TTITLE7=Freddy Fender - That Girl Who Waits on Tables
TTITLE8=George Jones - Lonely Street
TTITLE9=Conway Twitty - Big Town
TTITLE10=Billie Jo Spears - I'm So Lonesome I Could Cry
TTITLE11=Donna Fargo - Wishful Thinking
TTITLE12=Hank Lockin - Send Me the Pillow You Dream On
TTITLE13=Willie Nelson - The Red Headed Stranger*
TTITLE14=Johnny Paycheck - Jukebox Charlie
TTITLE15=Loretta Lynn - I Fall to Pieces*
TTITLE16=Jo Anne Houston - The Race Is On
TTITLE17=Hank Williams - Lovesick Blues
EXTD=
EXTT0=
EXTT1=
EXTT2=
EXTT3=
EXTT4=
EXTT5=
EXTT6=
EXTT7=
EXTT8=
EXTT9=
EXTT10=
EXTT11=
EXTT12=
EXTT13=
EXTT14=
EXTT15=
EXTT16=
EXTT17=
PLAYORDER=
